<svg width="1000" height="1000" viewBox="0 0 1000 1000" fill="none" xmlns="http://www.w3.org/2000/svg">
<rect width="1000" height="1000" fill="white"/>
<path d="M135.776 430.598C80.581 408.507 49.3976 439.802 58.5967 458.212C86.1978 515.744 130.361 625.285 141.4 658.424C152.439 691.562 152.918 695.225 148.299 699.847C120.702 727.462 75.1661 797.881 86.2051 886.251C97.2441 974.62 150.599 992.11 175.897 989.808H886.529C886.529 879.347 858.932 796.501 852.032 761.981C845.133 727.462 886.529 665.328 914.127 610.097C936.204 565.912 943 504.236 943 472.018C940.7 460.512 925.166 425.074 886.529 430.597C847.893 436.12 722.221 534.156 708.422 541.058C694.624 547.961 655.918 558.906 625.63 554.865C595.342 550.824 548.461 541.06 473.844 541.058C399.228 541.057 384.153 561.768 363.455 554.865C342.757 547.961 253.065 477.542 135.776 430.598Z" fill="black"/>
<path d="M272.498 658.422C235.624 670.725 231.102 699.845 231.102 713.653C231.102 741.269 249.5 743.57 258.699 741.269C277.097 738.967 319.413 734.365 341.491 734.365C375.988 734.365 375.988 734.365 375.988 727.461C375.988 702.234 355.29 679.131 348.39 672.23C341.491 665.329 313.894 644.611 272.498 658.422Z" fill="#FEFFFA"/>
<path d="M610.566 658.422C560.89 658.422 539.272 699.845 534.673 720.557C529.863 734.02 541.572 741.268 548.471 741.269H645.062C667.14 741.269 672.66 732.063 672.66 727.461C672.66 704.448 660.241 658.422 610.566 658.422Z" fill="#FEFFFA"/>
<path d="M611.831 679.133C578.714 679.133 558.936 718.255 556.636 734.364H646.328C648.627 718.255 644.948 679.133 611.831 679.133Z" fill="black"/>
<path d="M258.699 734.364C251.8 713.653 272.498 672.23 306.994 672.23C334.592 672.23 341.491 709.05 341.491 727.46L258.699 734.364Z" fill="black"/>
<path d="M493.275 741.267C443.6 730.221 394.385 736.665 375.986 741.267C387.485 752.774 414.623 775.787 431.181 775.787C447.74 775.787 479.477 752.774 493.275 741.267Z" fill="#FEFFFA"/>
<ellipse cx="431.183" cy="817.211" rx="6.89934" ry="6.90385" fill="#FEFFFA"/>
</svg>
